<?xml version="1.0" encoding="UTF-8"?>
<svg version="1.1" xmlns="http://www.w3.org/2000/svg" width="200" height="200">
<path d="M0 0 C66 0 132 0 200 0 C200 66 200 132 200 200 C134 200 68 200 0 200 C0 134 0 68 0 0 Z " fill="#35D39A" transform="translate(0,0)"/>
<path d="M0 0 C66 0 132 0 200 0 C200 66 200 132 200 200 C134 200 68 200 0 200 C0 134 0 68 0 0 Z M24 23 C24 74.15 24 125.3 24 178 C54.69 178 85.38 178 117 178 C117.33 161.5 117.66 145 118 128 C123.88078884 132.70463107 129.70785193 137.36974771 135.375 142.3125 C136.01147461 142.86518555 136.64794922 143.41787109 137.30371094 143.98730469 C141.34570574 147.51218271 145.31740276 151.1038576 149.25 154.75 C157.78487124 163.88052444 157.78487124 163.88052444 168 169 C168.33 169.99 168.66 170.98 169 172 C172.05508026 175.03277199 172.05508026 175.03277199 176 176 C176 125.51 176 75.02 176 23 C125.84 23 75.68 23 24 23 Z " fill="#000100" transform="translate(0,0)"/>
<path d="M0 0 C38.28 0 76.56 0 116 0 C116 31.68 116 63.36 116 96 C112.61483794 94.30741897 111.33712164 93.53351012 108.9375 90.9375 C106.13468475 88.04598807 103.21558259 85.50447551 100.0625 83 C95.22017504 79.10624007 90.69293818 74.96491708 86.1875 70.6875 C78.99725968 63.86592415 71.57635499 57.38644893 64 51 C61.69 49.02 59.38 47.04 57 45 C56.67 69.09 56.34 93.18 56 118 C37.52 118 19.04 118 0 118 C0 79.06 0 40.12 0 0 Z " fill="#010402" transform="translate(42,41)"/>
<path d="M0 0 C50.16 0 100.32 0 152 0 C152 50.49 152 100.98 152 153 C148.94492007 151.47246003 146.55658777 150.19136095 144 148 C144 147.34 144 146.68 144 146 C143.443125 145.7525 142.88625 145.505 142.3125 145.25 C139.57589087 143.77075182 137.32349131 142.06532561 135 140 C135 139.34 135 138.68 135 138 C137.31 137.67 139.62 137.34 142 137 C141.01 138.32 140.02 139.64 139 141 C139.78375 141.309375 140.5675 141.61875 141.375 141.9375 C144 143 144 143 146 144 C146 145.32 146 146.64 146 148 C146.99 147.67 147.98 147.34 149 147 C149.33 98.82 149.66 50.64 150 1 C100.83 1 51.66 1 1 1 C1 51.16 1 101.32 1 153 C29.71 153 58.42 153 88 153 C88 153.33 88 153.66 88 154 C58.96 154 29.92 154 0 154 C0 103.18 0 52.36 0 0 Z " fill="#44CB9A" transform="translate(24,23)"/>
<path d="M0 0 C50.82 0 101.64 0 154 0 C154 51.48 154 102.96 154 156 C153.01 156 152.02 156 151 156 C151.33 104.85 151.66 53.7 152 1 C101.84 1 51.68 1 0 1 C0 0.67 0 0.34 0 0 Z " fill="#0E3E2B" transform="translate(24,22)"/>
<path d="M0 0 C0.495 1.485 0.495 1.485 1 3 C1.99 3 2.98 3 4 3 C4.495 4.98 4.495 4.98 5 7 C4.01 6.67 3.02 6.34 2 6 C2 23.16 2 40.32 2 58 C-28.69 58 -59.38 58 -91 58 C-91 57.67 -91 57.34 -91 57 C-61.3 56.67 -31.6 56.34 -1 56 C-0.67 37.52 -0.34 19.04 0 0 Z " fill="#359873" transform="translate(115,120)"/>
<path d="M0 0 C2 2 2 2 2.1953125 4.1640625 C2.16050781 5.38222656 2.16050781 5.38222656 2.125 6.625 C2.10695313 7.44226563 2.08890625 8.25953125 2.0703125 9.1015625 C2.04710938 9.72804688 2.02390625 10.35453125 2 11 C2.66 11 3.32 11 4 11 C4.20001597 18.52733932 4.38375751 26.05492539 4.54658794 33.58315849 C4.62270745 37.07864434 4.70447953 40.57380906 4.79907227 44.06884766 C4.90751477 48.08469468 4.99154423 52.1007268 5.07421875 56.1171875 C5.11157639 57.37554413 5.14893402 58.63390076 5.18742371 59.9303894 C5.21779472 61.67196823 5.21779472 61.67196823 5.2487793 63.44873047 C5.27320602 64.47465302 5.29763275 65.50057556 5.32279968 66.55758667 C5.21627579 67.36358307 5.10975189 68.16957947 5 69 C3.515 69.99 3.515 69.99 2 71 C1.34 71.99 0.68 72.98 0 74 C0 49.58 0 25.16 0 0 Z " fill="#3CC592" transform="translate(98,85)"/>
<path d="M0 0 C0.33 0 0.66 0 1 0 C1 1.98 1 3.96 1 6 C1.99 6.33 2.98 6.66 4 7 C4 26.14 4 45.28 4 65 C3.67 65 3.34 65 3 65 C3 46.52 3 28.04 3 9 C2.34 9 1.68 9 1 9 C1 27.48 1 45.96 1 65 C0.67 65 0.34 65 0 65 C0 43.55 0 22.1 0 0 Z " fill="#2BDA9B" transform="translate(99,87)"/>
<path d="M0 0 C0.66 0.33 1.32 0.66 2 1 C2.625 3.0625 2.625 3.0625 3 5 C3.99 5 4.98 5 6 5 C6 5.99 6 6.98 6 8 C8.97 8.495 8.97 8.495 12 9 C12.103125 9.763125 12.20625 10.52625 12.3125 11.3125 C13.04364039 14.17059424 13.76951913 15.15742885 16 17 C15.34 17 14.68 17 14 17 C13.67 17.66 13.34 18.32 13 19 C10.93627679 17.10548397 8.87399843 15.20943437 6.8125 13.3125 C6.23435547 12.78205078 5.65621094 12.25160156 5.06054688 11.70507812 C1.6269523 8.5430673 -1.72410503 5.32524932 -5 2 C-2.625 0.9375 -2.625 0.9375 0 0 Z " fill="#3AC695" transform="translate(132,132)"/>
<path d="M0 0 C3.89271432 2.167295 7.03709814 4.67413029 10.3125 7.6875 C11.19550781 8.49574219 12.07851562 9.30398437 12.98828125 10.13671875 C13.65214844 10.75160156 14.31601563 11.36648437 15 12 C14.34 12.66 13.68 13.32 13 14 C13 13.34 13 12.68 13 12 C11.02 12 9.04 12 7 12 C6.34 13.32 5.68 14.64 5 16 C4.34 16 3.68 16 3 16 C2.92652344 15.04287109 2.92652344 15.04287109 2.8515625 14.06640625 C2.77679688 13.24011719 2.70203125 12.41382812 2.625 11.5625 C2.55539063 10.73878906 2.48578125 9.91507813 2.4140625 9.06640625 C2.20910156 8.04353516 2.20910156 8.04353516 2 7 C1.34 6.67 0.68 6.34 0 6 C0 4.02 0 2.04 0 0 Z " fill="#3CC694" transform="translate(100,87)"/>
<path d="M0 0 C5.625 3.375 5.625 3.375 8 6 C7.195625 5.814375 6.39125 5.62875 5.5625 5.4375 C4.716875 5.293125 3.87125 5.14875 3 5 C1.44341518 6.55658482 1.83690601 8.07867736 1.79467773 10.24438477 C1.77473251 11.14524307 1.75478729 12.04610138 1.73423767 12.97425842 C1.71752518 13.95341721 1.70081268 14.93257599 1.68359375 15.94140625 C1.66281265 16.93881332 1.64203156 17.9362204 1.62062073 18.96385193 C1.55501363 22.16332843 1.49618866 25.36288982 1.4375 28.5625 C1.39432538 30.72592039 1.35071145 32.88933206 1.30664062 35.05273438 C1.19932097 40.36839874 1.09757573 45.68414834 1 51 C0.67 51 0.34 51 0 51 C0 34.17 0 17.34 0 0 Z " fill="#011205" transform="translate(117,127)"/>
<path d="M0 0 C-1.485 1.485 -1.485 1.485 -3 3 C-1.824375 3.4640625 -1.824375 3.4640625 -0.625 3.9375 C2 5 2 5 4 6 C4 7.32 4 8.64 4 10 C4.66 10 5.32 10 6 10 C5.67 10.66 5.34 11.32 5 12 C4.01 11.34 3.02 10.68 2 10 C2 9.34 2 8.68 2 8 C1.443125 7.7525 0.88625 7.505 0.3125 7.25 C-2.42410913 5.77075182 -4.67650869 4.06532561 -7 2 C-7 1.34 -7 0.68 -7 0 C-3.86650268 -1.04449911 -3.01031744 -0.93423645 0 0 Z " fill="#3EBD90" transform="translate(166,161)"/>
<path d="M0 0 C4.50884026 2.31883213 6.93906776 5.06451569 10 9 C7.33333333 9 4.66666667 9 2 9 C2.33 7.68 2.66 6.36 3 5 C2.34 5 1.68 5 1 5 C0.67 3.35 0.34 1.7 0 0 Z " fill="#3EC595" transform="translate(144,126)"/>
<path d="M0 0 C3.375 0.25 3.375 0.25 7 1 C8.5 2.8125 8.5 2.8125 9 5 C8.70549668 6.34244429 8.37683609 7.67830282 8 9 C6.66368764 7.6905332 5.33102075 6.37734515 4 5.0625 C3.2575 4.33160156 2.515 3.60070312 1.75 2.84765625 C0 1 0 1 0 0 Z " fill="#091E15" transform="translate(121,104)"/>
<path d="M0 0 C4.1424367 1.38081223 5.32203099 3.59825558 8 7 C6.35 7.66 4.7 8.32 3 9 C2.34 8.34 1.68 7.68 1 7 C1.375 4.375 1.375 4.375 2 2 C1.34 2 0.68 2 0 2 C0 1.34 0 0.68 0 0 Z " fill="#07170E" transform="translate(165,168)"/>
<path d="M0 0 C6.15234375 1.26953125 6.15234375 1.26953125 8 2 C8.33 2.99 8.66 3.98 9 5 C8.01 5.66 7.02 6.32 6 7 C4.02 4.69 2.04 2.38 0 0 Z " fill="#071B11" transform="translate(103,88)"/>
<path d="M0 0 C3 1.75 3 1.75 6 4 C6 5.32 6 6.64 6 8 C2.24623848 6.74874616 1.75926711 5.4347596 0 2 C0 1.34 0 0.68 0 0 Z " fill="#05170D" transform="translate(128,136)"/>
<path d="M0 0 C1.5625 1.25 1.5625 1.25 3 3 C2.6875 5.1875 2.6875 5.1875 2 7 C0.68 7.33 -0.64 7.66 -2 8 C-1.33333333 5.33333333 -0.66666667 2.66666667 0 0 Z " fill="#0B120C" transform="translate(138,144)"/>
<path d="M0 0 C2 1 2 1 2.75 2.875 C3 5 3 5 1 8 C0.01 7.01 -0.98 6.02 -2 5 C-1.34 3.35 -0.68 1.7 0 0 Z " fill="#0D1A14" transform="translate(100,80)"/>
<path d="M0 0 C0.99 0.33 1.98 0.66 3 1 C3 2.65 3 4.3 3 6 C1.68 5.34 0.36 4.68 -1 4 C-0.67 2.68 -0.34 1.36 0 0 Z " fill="#41C898" transform="translate(173,170)"/>
<path d="M0 0 C1.32 0.66 2.64 1.32 4 2 C4 2.66 4 3.32 4 4 C4.99 4.33 5.98 4.66 7 5 C6.34 5.66 5.68 6.32 5 7 C3.02 5.35 1.04 3.7 -1 2 C-0.67 1.34 -0.34 0.68 0 0 Z " fill="#051E12" transform="translate(145,124)"/>
<path d="M0 0 C0.99 0.99 1.98 1.98 3 3 C2.01 3 1.02 3 0 3 C-0.33 3.99 -0.66 4.98 -1 6 C-2.32 5.67 -3.64 5.34 -5 5 C-3.35 3.35 -1.7 1.7 0 0 Z " fill="#41CD9B" transform="translate(122,106)"/>
<path d="M0 0 C0.66 0 1.32 0 2 0 C2 0.66 2 1.32 2 2 C2.66 2.33 3.32 2.66 4 3 C4 3.66 4 4.32 4 5 C2.68 4.67 1.36 4.34 0 4 C-0.33 5.32 -0.66 6.64 -1 8 C-1.04241723 5.66705225 -1.04092937 3.33297433 -1 1 C-0.67 0.67 -0.34 0.34 0 0 Z " fill="#3AD59D" transform="translate(104,92)"/>
</svg>
