<?xml version="1.0" encoding="UTF-8"?>
<svg version="1.1" xmlns="http://www.w3.org/2000/svg" width="225" height="225">
<path d="M0 0 C74.25 0 148.5 0 225 0 C225 74.25 225 148.5 225 225 C150.75 225 76.5 225 0 225 C0 150.75 0 76.5 0 0 Z " fill="#3178C6" transform="translate(0,0)"/>
<path d="M0 0 C1.69479492 -0.0309375 1.69479492 -0.0309375 3.42382812 -0.0625 C10.97823501 -0.09729289 17.23559442 0.95601499 24.4375 3.25 C24.4375 9.85 24.4375 16.45 24.4375 23.25 C21.4675 22.26 18.4975 21.27 15.4375 20.25 C7.4835127 18.0817848 -1.15551842 16.67607801 -9.0625 19.5 C-11.63447783 21.30038448 -13.18874397 22.42167876 -14.5625 25.25 C-14.5625 28.91898757 -13.98305435 30.7170027 -11.70703125 33.6015625 C-7.64970126 37.48783535 -2.31201286 39.42384213 2.75 41.6875 C21.22700298 49.97437082 21.22700298 49.97437082 25.875 58.375 C26.58462891 59.61636719 26.58462891 59.61636719 27.30859375 60.8828125 C30.81776076 68.24113502 30.04710362 76.24097817 27.546875 83.82421875 C24.68429731 90.08358757 19.5002237 95.10204731 13.4375 98.25 C5.15103753 101.23888689 -2.75281088 101.73965126 -11.5 101.6875 C-12.68529297 101.70748047 -13.87058594 101.72746094 -15.09179688 101.74804688 C-22.16717969 101.7441657 -33.15408309 101.65841691 -38.5625 96.25 C-38.64950342 94.61527118 -38.66951063 92.97685945 -38.66015625 91.33984375 C-38.65693359 90.35048828 -38.65371094 89.36113281 -38.65039062 88.34179688 C-38.64201172 87.30087891 -38.63363281 86.25996094 -38.625 85.1875 C-38.62048828 84.14271484 -38.61597656 83.09792969 -38.61132812 82.02148438 C-38.59949913 79.4309334 -38.58301689 76.84049441 -38.5625 74.25 C-37.45390625 74.81589844 -36.3453125 75.38179688 -35.203125 75.96484375 C-33.73969097 76.70594175 -32.27614333 77.44681544 -30.8125 78.1875 C-30.08289063 78.56068359 -29.35328125 78.93386719 -28.6015625 79.31835938 C-27.53808594 79.85493164 -27.53808594 79.85493164 -26.453125 80.40234375 C-25.80375977 80.73226318 -25.15439453 81.06218262 -24.48535156 81.40209961 C-17.77350415 84.36175503 -8.83848946 84.57486604 -1.90234375 82.42578125 C1.94555629 80.57505447 1.94555629 80.57505447 4.4375 77.25 C4.83063834 73.71175497 4.81321367 71.84638601 2.89453125 68.80078125 C-0.15867173 65.63108086 -3.23500804 64.08370163 -7.1875 62.25 C-7.90099609 61.90461182 -8.61449219 61.55922363 -9.34960938 61.20336914 C-12.40360645 59.7271554 -15.47401066 58.29077903 -18.5546875 56.87109375 C-27.03641299 52.86803639 -33.76595952 47.94978805 -37.71484375 39.1953125 C-39.75479164 32.10719864 -40.06214781 23.59323467 -37 16.75 C-31.66526038 8.21071193 -24.33375536 3.60409712 -14.75878906 0.70361328 C-9.93441638 -0.2927945 -4.90683335 0.0218689 0 0 Z " fill="#FCFDFE" transform="translate(177.5625,104.75)"/>
<path d="M0 0 C26.07 0 52.14 0 79 0 C79 5.94 79 11.88 79 18 C69.43 18 59.86 18 50 18 C50 44.4 50 70.8 50 98 C42.74 98 35.48 98 28 98 C28 71.6 28 45.2 28 18 C18.76 18 9.52 18 0 18 C0 12.06 0 6.12 0 0 Z " fill="#FEFEFE" transform="translate(52,107)"/>
<path d="M0 0 C5.94 0 11.88 0 18 0 C16.02 0.99 16.02 0.99 14 2 C12.96875 2.70125 11.9375 3.4025 10.875 4.125 C8 6 8 6 6 6 C3.91620491 9.84700632 2.50313376 13.90054429 1 18 C0.67 18 0.34 18 0 18 C0 12.06 0 6.12 0 0 Z " fill="#F6F9FC" transform="translate(0,0)"/>
<path d="M0 0 C2 3 2 3 3.04296875 4.90234375 C6.00438673 10.16820985 8.54393878 12.42077106 14 15 C15.32 15.66 16.64 16.32 18 17 C12.06 17 6.12 17 0 17 C0 11.39 0 5.78 0 0 Z " fill="#F9FBFD" transform="translate(0,208)"/>
<path d="M0 0 C5.61 0 11.22 0 17 0 C17 5.94 17 11.88 17 18 C15 14 15 14 14.0625 12.03515625 C10.7301964 5.84834259 6.40147892 3.58545168 0 1 C0 0.67 0 0.34 0 0 Z " fill="#F9FBFD" transform="translate(208,0)"/>
<path d="M0 0 C0.33 0 0.66 0 1 0 C1 5.61 1 11.22 1 17 C-4.61 17 -10.22 17 -16 17 C-13 15 -13 15 -11.1328125 14.0625 C-4.87044386 10.74856173 -2.60606261 6.4525108 0 0 Z " fill="#FAFBFD" transform="translate(224,208)"/>
</svg>
