<?xml version="1.0" encoding="UTF-8"?>
<svg version="1.1" xmlns="http://www.w3.org/2000/svg" width="225" height="225">
<path d="M0 0 C0.7867532 -0.00453111 1.57350641 -0.00906223 2.38410062 -0.01373065 C5.01712858 -0.02637835 7.6499498 -0.02475404 10.28300476 -0.02310181 C12.17221848 -0.02908685 14.06142976 -0.03589234 15.95063782 -0.04345703 C21.08089364 -0.06112723 26.21108274 -0.06581286 31.34136605 -0.0670886 C34.5474309 -0.06851024 37.75347878 -0.07278009 40.95953941 -0.07808304 C52.146962 -0.09658704 63.33433691 -0.10475323 74.52177429 -0.10317993 C84.94585717 -0.10197859 95.36973298 -0.12307857 105.79376346 -0.15466726 C114.74679135 -0.18083027 123.69975161 -0.19154721 132.65281743 -0.19026911 C137.99852126 -0.18975947 143.34404109 -0.19544418 148.6897068 -0.21662521 C153.71880709 -0.23600778 158.74754786 -0.23613183 163.77666092 -0.22159195 C165.6196883 -0.21950275 167.46273817 -0.22421136 169.30572701 -0.23631287 C171.82761063 -0.25179613 174.34825932 -0.24243758 176.87011719 -0.22705078 C177.59435688 -0.23733791 178.31859657 -0.24762503 179.06478292 -0.25822389 C185.29921456 -0.17453043 190.41853777 1.93146542 195.14897156 6.01351929 C195.817995 6.85076538 195.817995 6.85076538 196.50053406 7.70492554 C197.19276062 8.53830444 197.19276062 8.53830444 197.89897156 9.38851929 C201.01454837 14.16110669 201.41662117 18.557823 201.39295959 24.14189148 C201.39749071 24.92864468 201.40202182 25.71539789 201.40669024 26.5259921 C201.41933795 29.15902006 201.41771363 31.79184128 201.4160614 34.42489624 C201.42204644 36.31410996 201.42885193 38.20332124 201.43641663 40.0925293 C201.45408682 45.22278512 201.45877245 50.35297422 201.4600482 55.48325753 C201.46146984 58.68932238 201.46573968 61.89537026 201.47104263 65.10143089 C201.48954663 76.28885347 201.49771282 87.47622839 201.49613953 98.66366577 C201.49493819 109.08774865 201.51603816 119.51162446 201.54762685 129.93565494 C201.57378986 138.88868283 201.5845068 147.84164309 201.58322871 156.79470891 C201.58271906 162.14041274 201.58840378 167.48593257 201.60958481 172.83159828 C201.62896738 177.86069857 201.62909142 182.88943934 201.61455154 187.9185524 C201.61246234 189.76157978 201.61717096 191.60462965 201.62927246 193.44761848 C201.64475572 195.96950211 201.63539718 198.4901508 201.62001038 201.01200867 C201.6302975 201.73624836 201.64058463 202.46048805 201.65118349 203.2066744 C201.56749003 209.44110604 199.46149417 214.56042925 195.37944031 219.29086304 C194.82127625 219.73687866 194.26311218 220.18289429 193.68803406 220.64242554 C193.13244812 221.10390991 192.57686218 221.56539429 192.00444031 222.04086304 C187.2318529 225.15643984 182.8351366 225.55851265 177.25106812 225.53485107 C176.46431491 225.53938219 175.67756171 225.5439133 174.8669675 225.54858172 C172.23393953 225.56122943 169.60111831 225.55960511 166.96806335 225.55795288 C165.07884963 225.56393792 163.18963836 225.57074341 161.3004303 225.57830811 C156.17017448 225.5959783 151.03998537 225.60066393 145.90970206 225.60193968 C142.70363722 225.60336131 139.49758933 225.60763116 136.2915287 225.61293411 C125.10410612 225.63143811 113.9167312 225.6396043 102.72929382 225.63803101 C92.30521094 225.63682967 81.88133514 225.65792964 71.45730466 225.68951833 C62.50427677 225.71568134 53.55131651 225.72639828 44.59825069 225.72512019 C39.25254686 225.72461054 33.90702703 225.73029526 28.56136131 225.75147629 C23.53226103 225.77085886 18.50352026 225.7709829 13.4744072 225.75644302 C11.63137982 225.75435382 9.78832994 225.75906244 7.94534111 225.77116394 C5.42345748 225.7866472 2.90280879 225.77728866 0.38095093 225.76190186 C-0.34328876 225.77218898 -1.06752845 225.78247611 -1.8137148 225.79307497 C-8.04814645 225.70938151 -13.16746966 223.60338565 -17.89790344 219.52133179 C-18.34391907 218.96316772 -18.78993469 218.40500366 -19.24946594 217.82992554 C-19.71095032 217.2743396 -20.17243469 216.71875366 -20.64790344 216.14633179 C-23.76348025 211.37374438 -24.16555305 206.97702808 -24.14189148 201.39295959 C-24.14642259 200.60620639 -24.15095371 199.81945319 -24.15562212 199.00885898 C-24.16826983 196.37583101 -24.16664552 193.74300979 -24.16499329 191.10995483 C-24.17097833 189.22074111 -24.17778382 187.33152984 -24.18534851 185.44232178 C-24.20301871 180.31206596 -24.20770434 175.18187685 -24.20898008 170.05159354 C-24.21040172 166.8455287 -24.21467157 163.63948081 -24.21997452 160.43342018 C-24.23847852 149.2459976 -24.24664471 138.05862268 -24.24507141 126.8711853 C-24.24387007 116.44710242 -24.26497005 106.02322662 -24.29655874 95.59919614 C-24.32272175 86.64616825 -24.33343869 77.69320799 -24.33216059 68.74014217 C-24.33165095 63.39443834 -24.33733566 58.04891851 -24.35851669 52.70325279 C-24.37789926 47.67415251 -24.37802331 42.64541174 -24.36348343 37.61629868 C-24.36139423 35.7732713 -24.36610284 33.93022142 -24.37820435 32.08723259 C-24.39368761 29.56534896 -24.38432906 27.04470027 -24.36894226 24.52284241 C-24.37922939 23.79860272 -24.38951651 23.07436303 -24.40011537 22.32817668 C-24.31642191 16.09374503 -22.21042606 10.97442182 -18.12837219 6.24398804 C-17.57020813 5.79797241 -17.01204407 5.35195679 -16.43696594 4.89242554 C-15.88138 4.43094116 -15.32579407 3.96945679 -14.75337219 3.49398804 C-9.98078479 0.37841123 -5.58406848 -0.02366158 0 0 Z M121.24662781 116.15414429 C116.43677371 122.05345931 114.56182925 128.44098183 114.81694031 136.06430054 C115.84074294 143.37347378 118.48788978 149.78570426 124.03959656 154.72836304 C129.34783464 158.64492822 135.29618488 161.38644662 141.21537781 164.24398804 C141.92379822 164.58953735 142.63221863 164.93508667 143.36210632 165.29110718 C144.75462422 165.96757295 146.15208649 166.63398334 147.55497742 167.28866577 C152.51051726 169.68317771 157.04038999 172.37370802 159.06303406 177.76742554 C159.14172231 180.91495548 158.76344687 182.56130872 157.12553406 185.26742554 C150.82403171 189.67847718 143.13584935 189.74931356 135.75053406 188.70492554 C129.33229664 187.3864859 123.82499637 184.40533176 118.12553406 181.26742554 C117.46553406 180.93742554 116.80553406 180.60742554 116.12553406 180.26742554 C116.12553406 187.19742554 116.12553406 194.12742554 116.12553406 201.26742554 C131.06466538 207.66991039 149.6572542 209.16010358 165.12553406 203.26742554 C171.91070417 200.48160142 176.55287313 196.74506978 180.12553406 190.26742554 C183.03276927 182.9993375 183.48161904 174.92857346 181.28569031 167.38070679 C176.50404718 156.86753183 167.68450245 152.14536272 157.50053406 147.64242554 C141.81087889 140.63811519 141.81087889 140.63811519 139.12553406 135.26742554 C138.75053406 132.45492554 138.75053406 132.45492554 139.12553406 129.26742554 C141.67577771 126.16577785 143.30252653 124.54176138 147.12553406 123.26742554 C157.27190748 122.55024271 165.61115882 123.33860392 175.12553406 127.26742554 C176.11553406 127.59742554 177.10553406 127.92742554 178.12553406 128.26742554 C178.12553406 121.99742554 178.12553406 115.72742554 178.12553406 109.26742554 C160.47651556 102.6490436 135.5709932 101.77021812 121.24662781 116.15414429 Z M28.12553406 107.26742554 C28.12553406 112.87742554 28.12553406 118.48742554 28.12553406 124.26742554 C37.36553406 124.26742554 46.60553406 124.26742554 56.12553406 124.26742554 C56.12553406 150.99742554 56.12553406 177.72742554 56.12553406 205.26742554 C63.38553406 205.26742554 70.64553406 205.26742554 78.12553406 205.26742554 C78.12553406 178.53742554 78.12553406 151.80742554 78.12553406 124.26742554 C87.36553406 124.26742554 96.60553406 124.26742554 106.12553406 124.26742554 C106.12553406 118.65742554 106.12553406 113.04742554 106.12553406 107.26742554 C80.38553406 107.26742554 54.64553406 107.26742554 28.12553406 107.26742554 Z " fill="#3177C5" transform="translate(23.874465942382813,-0.267425537109375)"/>
<path d="M0 0 C1.90845703 0.04060547 1.90845703 0.04060547 3.85546875 0.08203125 C5.31919922 0.13423828 5.31919922 0.13423828 6.8125 0.1875 C6.8125 0.5175 6.8125 0.8475 6.8125 1.1875 C5.99007812 1.33445312 5.16765625 1.48140625 4.3203125 1.6328125 C-4.76649833 3.45856895 -13.25034708 6.00298553 -19.1875 13.5625 C-23.43170586 20.38622321 -24.28986027 28.37662137 -22.51171875 36.13671875 C-21.7823225 38.83652195 -21.01265482 41.51557009 -20.1875 44.1875 C-24.42562447 40.22241996 -26.34329114 35.75162305 -26.5625 30 C-26.38252706 24.2208689 -24.76025507 18.72022767 -23.1875 13.1875 C-22.1975 13.1875 -21.2075 13.1875 -20.1875 13.1875 C-20.5175 11.2075 -20.8475 9.2275 -21.1875 7.1875 C-20.5275 7.1875 -19.8675 7.1875 -19.1875 7.1875 C-19.1875 7.8475 -19.1875 8.5075 -19.1875 9.1875 C-17.74712331 8.25442579 -16.31031015 7.31584923 -14.875 6.375 C-14.07449219 5.85292969 -13.27398437 5.33085938 -12.44921875 4.79296875 C-10.18228628 3.34101594 -10.18228628 3.34101594 -8.84375 1.5 C-6.11991092 -0.65851399 -3.37924856 -0.09300684 0 0 Z " fill="#3E76B2" transform="translate(163.1875,104.8125)"/>
<path d="M0 0 C2.92823559 1.77235312 3.44045424 3.20906918 4.375 6.4375 C-1.375 4.6875 -1.375 4.6875 -3.625 2.4375 C-3.955 9.0375 -4.285 15.6375 -4.625 22.4375 C-5.285 22.4375 -5.945 22.4375 -6.625 22.4375 C-6.625 15.5075 -6.625 8.5775 -6.625 1.4375 C-2.625 -0.5625 -2.625 -0.5625 0 0 Z " fill="#2D73B6" transform="translate(144.625,178.5625)"/>
<path d="M0 0 C0.66 0.66 1.32 1.32 2 2 C1.53190812 3.93923781 1.05575096 5.87710272 0.52734375 7.80078125 C-1.26823453 15.28900769 0.78855077 21.83911679 3 29 C-0.64675189 25.58819291 -2.66039292 21.81976784 -3.2578125 16.859375 C-3.39065256 11.43190976 -2.587928 6.19264047 -1 1 C-0.67 0.67 -0.34 0.34 0 0 Z " fill="#376DAB" transform="translate(140,120)"/>
<path d="M0 0 C0.928125 0.0825 1.85625 0.165 2.8125 0.25 C2.1525 1.57 1.4925 2.89 0.8125 4.25 C5.1025 4.91 9.3925 5.57 13.8125 6.25 C9.52983058 8.39133471 8.79949068 8.40821723 4.375 7.5 C3.44816406 7.31953125 2.52132812 7.1390625 1.56640625 6.953125 C-1.14191608 6.26163845 -3.62072896 5.34937925 -6.1875 4.25 C-4.36434338 1.00883268 -3.82500054 0.30000004 0 0 Z " fill="#3E79B7" transform="translate(155.1875,181.75)"/>
<path d="M0 0 C0 3 0 3 -0.375 6.875 C-0.3818962 10.62653084 -0.0972363 10.89597977 2.6875 13.875 C5.45864275 15.65271422 7.88164916 16.99112179 11 18 C11 18.99 11 19.98 11 21 C-0.44607776 14.64349499 -0.44607776 14.64349499 -3 10 C-3.51518691 6.39369166 -3.45380713 4.71852796 -1.5 1.625 C-1.005 1.08875 -0.51 0.5525 0 0 Z " fill="#336AA6" transform="translate(165,125)"/>
<path d="M0 0 C2.99357002 1.49678501 3.55176584 4.0285712 4.90234375 6.9921875 C6.07340615 9.13427318 7.06033505 10.51370252 9 12 C10.32 12 11.64 12 13 12 C13 12.99 13 13.98 13 15 C14.32 15.33 15.64 15.66 17 16 C10.95382995 15.87403812 8.13604976 13.90514527 3.69921875 9.88671875 C0.64882922 6.49973451 0 4.62306473 0 0 Z " fill="#346DA9" transform="translate(1,208)"/>
<path d="M0 0 C0.66 0.33 1.32 0.66 2 1 C1.16855469 1.61488281 1.16855469 1.61488281 0.3203125 2.2421875 C-0.40414063 2.78101563 -1.12859375 3.31984375 -1.875 3.875 C-2.59429687 4.40867187 -3.31359375 4.94234375 -4.0546875 5.4921875 C-7.09981429 7.8524665 -7.92200371 8.70361411 -8.9375 12.5625 C-9.288125 13.696875 -9.63875 14.83125 -10 16 C-10.99 16.33 -11.98 16.66 -13 17 C-11.35729636 9.45383017 -8.2588107 5.46488407 -2 1 C-1.34 0.67 -0.68 0.34 0 0 Z " fill="#376AA2" transform="translate(13,1)"/>
<path d="M0 0 C1.90845703 0.04060547 1.90845703 0.04060547 3.85546875 0.08203125 C5.31919922 0.13423828 5.31919922 0.13423828 6.8125 0.1875 C6.8125 0.5175 6.8125 0.8475 6.8125 1.1875 C4.73202703 1.7196441 2.64797707 2.23781786 0.5625 2.75 C-0.59765625 3.04003906 -1.7578125 3.33007812 -2.953125 3.62890625 C-5.90840983 4.13929964 -7.43184101 4.21746165 -10.1875 3.1875 C-7.45798749 -0.67846382 -4.44588996 -0.12236394 0 0 Z " fill="#437DBA" transform="translate(163.1875,104.8125)"/>
<path d="M0 0 C0.703125 1.73828125 0.703125 1.73828125 1 4 C-0.328125 6.10546875 -0.328125 6.10546875 -2.25 8.1875 C-3.18585938 9.22970703 -3.18585938 9.22970703 -4.140625 10.29296875 C-6 12 -6 12 -9 13 C-8 10 -8 10 -5.5625 8.125 C-2.80219064 5.83596297 -2.08525187 4.34619327 -1 1 C-0.67 0.67 -0.34 0.34 0 0 Z " fill="#366EA9" transform="translate(222,210)"/>
<path d="M0 0 C0.66 0.66 1.32 1.32 2 2 C1.01 4.97 0.02 7.94 -1 11 C-1.66 10.67 -2.32 10.34 -3 10 C-2.69201674 8.51988629 -2.378482 7.04092675 -2.0625 5.5625 C-1.88847656 4.73878906 -1.71445313 3.91507812 -1.53515625 3.06640625 C-1 1 -1 1 0 0 Z " fill="#3072B0" transform="translate(140,120)"/>
<path d="M0 0 C3 0 3 0 5 1 C4.34 2.32 3.68 3.64 3 5 C1.68 4.34 0.36 3.68 -1 3 C-0.67 2.01 -0.34 1.02 0 0 Z " fill="#3780C9" transform="translate(166,124)"/>
<path d="M0 0 C0.66 0 1.32 0 2 0 C2 1.65 2 3.3 2 5 C0.02 5.99 0.02 5.99 -2 7 C-1.34 4.69 -0.68 2.38 0 0 Z " fill="#3670AF" transform="translate(2,11)"/>
</svg>
